<svg width="current" height="current" viewBox="0 0 16 16" fill="none" xmlns="http://www.w3.org/2000/svg">
<g id="IONIcon/P/person/default">
<path id="Vector" d="M10.2452 2.18228C9.6751 1.56675 8.87881 1.22778 7.99991 1.22778C7.11631 1.22778 6.31739 1.5647 5.74991 2.17642C5.17627 2.79487 4.89678 3.6354 4.96241 4.54302C5.09248 6.33364 6.45508 7.79028 7.99991 7.79028C9.54473 7.79028 10.905 6.33393 11.0371 4.5436C11.1036 3.64419 10.8224 2.80542 10.2452 2.18228Z" fill="current"/>
<path id="Vector_2" d="M13.1562 14.3522H2.84367C2.70869 14.3539 2.57502 14.3256 2.45237 14.2692C2.32973 14.2128 2.2212 14.1297 2.13469 14.0261C1.94426 13.7985 1.8675 13.4876 1.92434 13.1733C2.1716 11.8016 2.94328 10.6493 4.15617 9.84045C5.23371 9.12239 6.59865 8.72717 7.99992 8.72717C9.40119 8.72717 10.7661 9.12268 11.8437 9.84045C13.0566 10.649 13.8282 11.8013 14.0755 13.173C14.1323 13.4873 14.0556 13.7982 13.8652 14.0258C13.7787 14.1295 13.6702 14.2126 13.5475 14.269C13.4249 14.3255 13.2912 14.3539 13.1562 14.3522Z" fill="current"/>
</g>
</svg>
