<svg width="current" height="current" viewBox="0 0 15 16" fill="current" xmlns="http://www.w3.org/2000/svg">
<g id="blog-text 1" clip-path="url(#clip0_166_12413)">
<path id="Vector" d="M0.0625 3.78467C0.35625 2.35967 1.61875 1.28467 3.125 1.28467H11.875C13.3813 1.28467 14.6438 2.35967 14.9375 3.78467H0.0625ZM15 5.03467V10.6597C15 12.3847 13.6 13.7847 11.875 13.7847H3.125C1.4 13.7847 0 12.3847 0 10.6597V5.03467H15ZM6.25 7.53467C6.25 7.19092 5.96875 6.90967 5.625 6.90967H3.125C2.78125 6.90967 2.5 7.19092 2.5 7.53467C2.5 7.87842 2.78125 8.15967 3.125 8.15967H3.75V10.6597C3.75 11.0034 4.03125 11.2847 4.375 11.2847C4.71875 11.2847 5 11.0034 5 10.6597V8.15967H5.625C5.96875 8.15967 6.25 7.87842 6.25 7.53467ZM12.5 10.0347C12.5 9.69092 12.2188 9.40967 11.875 9.40967H8.125C7.78125 9.40967 7.5 9.69092 7.5 10.0347C7.5 10.3784 7.78125 10.6597 8.125 10.6597H11.875C12.2188 10.6597 12.5 10.3784 12.5 10.0347ZM12.5 7.53467C12.5 7.19092 12.2188 6.90967 11.875 6.90967H8.125C7.78125 6.90967 7.5 7.19092 7.5 7.53467C7.5 7.87842 7.78125 8.15967 8.125 8.15967H11.875C12.2188 8.15967 12.5 7.87842 12.5 7.53467Z" fill="current"/>
</g>
<defs>
<clipPath id="clip0_166_12413">
<rect width="15" height="15" fill="white" transform="translate(0 0.034668)"/>
</clipPath>
</defs>
</svg>
