<svg width="16" height="16" viewBox="0 0 16 16" fill="none" xmlns="http://www.w3.org/2000/svg">
<g clip-path="url(#clip0_439_3283)">
<path d="M8.16289 3.25813C8.11927 3.2164 8.06124 3.19312 8.00088 3.19312C7.94052 3.19312 7.88248 3.2164 7.83887 3.25813L2.44531 8.41057C2.42241 8.43248 2.40418 8.45881 2.39175 8.48796C2.37931 8.51712 2.37291 8.5485 2.37295 8.5802L2.37207 13.4159C2.37207 13.6646 2.47084 13.903 2.64666 14.0788C2.82247 14.2547 3.06093 14.3534 3.30957 14.3534H6.125C6.24932 14.3534 6.36855 14.3041 6.45645 14.2161C6.54436 14.1282 6.59375 14.009 6.59375 13.8847V9.90031C6.59375 9.83815 6.61844 9.77854 6.6624 9.73458C6.70635 9.69063 6.76596 9.66594 6.82812 9.66594H9.17187C9.23403 9.66594 9.29365 9.69063 9.3376 9.73458C9.38155 9.77854 9.40625 9.83815 9.40625 9.90031V13.8847C9.40625 14.009 9.45563 14.1282 9.54354 14.2161C9.63145 14.3041 9.75068 14.3534 9.875 14.3534H12.6893C12.9379 14.3534 13.1764 14.2547 13.3522 14.0788C13.528 13.903 13.6268 13.6646 13.6268 13.4159V8.5802C13.6268 8.5485 13.6204 8.51712 13.608 8.48796C13.5955 8.45881 13.5773 8.43248 13.5544 8.41057L8.16289 3.25813Z" fill="#121212"/>
<path d="M14.8825 7.44433L12.6911 5.34785V2.1665C12.6911 2.04218 12.6417 1.92296 12.5538 1.83505C12.4659 1.74714 12.3467 1.69775 12.2223 1.69775H10.8161C10.6918 1.69775 10.5725 1.74714 10.4846 1.83505C10.3967 1.92296 10.3473 2.04218 10.3473 2.1665V3.104L8.65047 1.48154C8.49168 1.321 8.25555 1.229 8.00037 1.229C7.74608 1.229 7.51053 1.321 7.35174 1.48184L1.1203 7.44375C0.938073 7.61953 0.915221 7.90869 1.08104 8.09912C1.12268 8.14719 1.17367 8.18628 1.23089 8.21402C1.28812 8.24175 1.3504 8.25755 1.41392 8.26046C1.47745 8.26336 1.54091 8.25331 1.60043 8.23091C1.65995 8.20852 1.71429 8.17424 1.76014 8.13017L7.83924 2.32119C7.88286 2.27947 7.94089 2.25618 8.00125 2.25618C8.06161 2.25618 8.11965 2.27947 8.16327 2.32119L14.2429 8.13017C14.3325 8.21606 14.4525 8.26293 14.5765 8.26051C14.7006 8.2581 14.8186 8.20659 14.9048 8.11728C15.0846 7.93096 15.0697 7.62334 14.8825 7.44433Z" fill="#121212"/>
</g>
<defs>
<clipPath id="clip0_439_3283">
<rect width="15" height="15" fill="white" transform="translate(0.5 0.290527)"/>
</clipPath>
</defs>
</svg>
