<svg width="current" height="current" viewBox="0 0 16 16" fill="none" xmlns="http://www.w3.org/2000/svg">
<g id="IONIcon/H/home/default" clip-path="url(#clip0_1473_4438)">
<path id="Vector" d="M8.16289 3.258C8.11927 3.21628 8.06124 3.19299 8.00088 3.19299C7.94052 3.19299 7.88248 3.21628 7.83887 3.258L2.44531 8.41044C2.42241 8.43236 2.40418 8.45869 2.39175 8.48784C2.37931 8.517 2.37291 8.54838 2.37295 8.58007L2.37207 13.4158C2.37207 13.6645 2.47084 13.9029 2.64666 14.0787C2.82247 14.2545 3.06093 14.3533 3.30957 14.3533H6.125C6.24932 14.3533 6.36855 14.3039 6.45645 14.216C6.54436 14.1281 6.59375 14.0089 6.59375 13.8846V9.90019C6.59375 9.83803 6.61844 9.77842 6.6624 9.73446C6.70635 9.69051 6.76596 9.66581 6.82812 9.66581H9.17187C9.23403 9.66581 9.29365 9.69051 9.3376 9.73446C9.38155 9.77842 9.40625 9.83803 9.40625 9.90019V13.8846C9.40625 14.0089 9.45563 14.1281 9.54354 14.216C9.63145 14.3039 9.75068 14.3533 9.875 14.3533H12.6893C12.9379 14.3533 13.1764 14.2545 13.3522 14.0787C13.528 13.9029 13.6268 13.6645 13.6268 13.4158V8.58007C13.6268 8.54838 13.6204 8.517 13.608 8.48784C13.5955 8.45869 13.5773 8.43236 13.5544 8.41044L8.16289 3.258Z" fill="current"/>
<path id="Vector_2" d="M14.8825 7.44421L12.6911 5.34773V2.16638C12.6911 2.04206 12.6417 1.92283 12.5538 1.83493C12.4659 1.74702 12.3467 1.69763 12.2223 1.69763H10.8161C10.6918 1.69763 10.5725 1.74702 10.4846 1.83493C10.3967 1.92283 10.3473 2.04206 10.3473 2.16638V3.10388L8.65047 1.48142C8.49168 1.32087 8.25555 1.22888 8.00037 1.22888C7.74608 1.22888 7.51053 1.32087 7.35174 1.48171L1.1203 7.44363C0.938073 7.61941 0.915221 7.90857 1.08104 8.099C1.12268 8.14707 1.17367 8.18616 1.23089 8.21389C1.28812 8.24163 1.3504 8.25743 1.41392 8.26034C1.47745 8.26324 1.54091 8.25319 1.60043 8.23079C1.65995 8.20839 1.71429 8.17412 1.76014 8.13005L7.83924 2.32107C7.88286 2.27934 7.94089 2.25606 8.00125 2.25606C8.06161 2.25606 8.11965 2.27934 8.16327 2.32107L14.2429 8.13005C14.3325 8.21594 14.4525 8.26281 14.5765 8.26039C14.7006 8.25797 14.8186 8.20647 14.9048 8.11716C15.0846 7.93083 15.0697 7.62322 14.8825 7.44421Z" fill="current"/>
</g>
<defs>
<clipPath id="clip0_1473_4438">
<rect width="15" height="15" fill="white" transform="translate(0.5 0.290527)"/>
</clipPath>
</defs>
</svg>
