<svg width="current" height="current" viewBox="0 0 15 16" fill="none" xmlns="http://www.w3.org/2000/svg">
<path d="M10.0873 2.12573C10.0573 2.31323 10.0423 2.50073 10.0423 2.68822C10.0423 4.3757 11.4073 5.73993 13.0873 5.73993C13.2748 5.73993 13.4548 5.71818 13.6423 5.68818V11.7398C13.6423 14.2831 12.1423 15.7905 9.59236 15.7905H4.05069C1.49998 15.7905 0 14.2831 0 11.7398V6.19067C0 3.64071 1.49998 2.12573 4.05069 2.12573H10.0873ZM10.2381 6.68566C10.0348 6.66316 9.8331 6.75316 9.71235 6.91816L7.89813 9.26562L5.81991 7.63065C5.69241 7.53315 5.54242 7.4949 5.39242 7.51065C5.24317 7.53315 5.10817 7.6149 5.01742 7.7349L2.79821 10.6231L2.75246 10.6906C2.62496 10.9299 2.68496 11.2373 2.90996 11.4031C3.01495 11.4706 3.12745 11.5156 3.25495 11.5156C3.4282 11.5231 3.59245 11.4323 3.69744 11.2906L5.57992 8.86738L7.71738 10.4731L7.78488 10.5174C8.02488 10.6449 8.32487 10.5856 8.49737 10.3599L10.6648 7.56315L10.6348 7.57815C10.7548 7.41315 10.7773 7.20316 10.6948 7.01566C10.6131 6.82816 10.4323 6.70066 10.2381 6.68566ZM13.1924 0.790527C14.1899 0.790527 14.9998 1.60052 14.9998 2.598C14.9998 3.59549 14.1899 4.40547 13.1924 4.40547C12.1949 4.40547 11.3849 3.59549 11.3849 2.598C11.3849 1.60052 12.1949 0.790527 13.1924 0.790527Z" fill="current"/>
</svg>
