<svg width="24" height="24" viewBox="0 0 24 24" fill="none" xmlns="http://www.w3.org/2000/svg">
<g id="Frame 1487">
<mask id="mask0_751_4544" style="mask-type:alpha" maskUnits="userSpaceOnUse" x="5" y="5" width="15" height="15">
<g id="Vector">
<mask id="path-1-inside-1_751_4544" fill="white">
<path d="M19.6875 6.24982H13.75V5.31232C13.75 5.26534 13.7394 5.21898 13.7189 5.17668C13.6985 5.13438 13.6688 5.09722 13.6321 5.06797C13.5953 5.03872 13.5525 5.01814 13.5066 5.00775C13.4608 4.99735 13.4133 4.99742 13.3675 5.00794L5.2425 6.88294C5.17361 6.89877 5.11213 6.93749 5.06809 6.99277C5.02404 7.04805 5.00004 7.11663 5 7.18732V17.8123C5.00003 17.8869 5.02676 17.9591 5.07537 18.0157C5.12397 18.0724 5.19124 18.1097 5.265 18.1211L13.39 19.3711C13.4345 19.378 13.4801 19.3752 13.5234 19.3629C13.5668 19.3506 13.6069 19.329 13.6412 19.2997C13.6754 19.2703 13.7028 19.2339 13.7216 19.1929C13.7404 19.152 13.7501 19.1074 13.75 19.0623V18.1248H19.6875C19.7704 18.1248 19.8499 18.0919 19.9085 18.0333C19.9671 17.9747 20 17.8952 20 17.8123V6.56232C20 6.47944 19.9671 6.39995 19.9085 6.34135C19.8499 6.28274 19.7704 6.24982 19.6875 6.24982ZM13.75 10.6248H15.625V11.8748H13.75V10.6248ZM7.5475 14.5217L8.90312 12.3529C8.93438 12.3034 8.95096 12.2459 8.95096 12.1873C8.95096 12.1287 8.93438 12.0713 8.90312 12.0217L7.54813 9.85294C7.52433 9.81818 7.50781 9.77898 7.49956 9.73767C7.4913 9.69637 7.49148 9.65382 7.50008 9.61259C7.50869 9.57136 7.52554 9.53229 7.54962 9.49774C7.5737 9.46318 7.60452 9.43385 7.64023 9.41151C7.67594 9.38917 7.71579 9.37427 7.7574 9.36772C7.79901 9.36117 7.84151 9.3631 7.88235 9.37339C7.92319 9.38369 7.96154 9.40213 7.99507 9.42761C8.02861 9.4531 8.05664 9.4851 8.0775 9.52169L9.11 11.1736C9.22438 11.3561 9.52562 11.3561 9.64 11.1736L10.6725 9.52169C10.6941 9.48678 10.7225 9.45648 10.7559 9.43254C10.7892 9.40861 10.827 9.3915 10.867 9.38221C10.907 9.37292 10.9485 9.37162 10.989 9.3784C11.0295 9.38517 11.0683 9.39989 11.1031 9.42169C11.138 9.44339 11.1682 9.47175 11.1921 9.50513C11.216 9.53852 11.2331 9.57629 11.2424 9.61628C11.2516 9.65627 11.253 9.6977 11.2462 9.7382C11.2395 9.7787 11.2248 9.81748 11.2031 9.85232L9.8475 12.0211C9.81625 12.0707 9.79966 12.1281 9.79966 12.1867C9.79966 12.2453 9.81625 12.3027 9.8475 12.3523L11.2025 14.5211C11.2243 14.5559 11.2389 14.5946 11.2457 14.6351C11.2525 14.6756 11.2512 14.717 11.242 14.757C11.2328 14.7969 11.2158 14.8347 11.1919 14.8681C11.1681 14.9015 11.1379 14.9299 11.1031 14.9517C11.0322 14.9935 10.948 15.0064 10.8678 14.9878C10.7877 14.9692 10.7177 14.9204 10.6725 14.8517L9.64 13.1998C9.61164 13.1552 9.57246 13.1185 9.5261 13.093C9.47974 13.0676 9.4277 13.0543 9.37483 13.0543C9.32195 13.0544 9.26995 13.0678 9.22365 13.0934C9.17735 13.1189 9.13826 13.1557 9.11 13.2004L8.0775 14.8523C8.03217 14.9209 7.96224 14.9696 7.88212 14.9882C7.80201 15.0068 7.71781 14.9939 7.64688 14.9523C7.61207 14.9306 7.5819 14.9022 7.55807 14.8688C7.53424 14.8354 7.51723 14.7976 7.508 14.7576C7.49877 14.7176 7.49751 14.6762 7.50429 14.6357C7.51107 14.5952 7.52575 14.5565 7.5475 14.5217ZM13.75 12.4998H15.625V13.7498H13.75V12.4998ZM16.25 12.4998H19.375V13.7498H16.25V12.4998ZM16.25 11.8748V10.6248H19.375V11.8748H16.25ZM16.25 9.99982V8.74982H19.375V9.99982H16.25ZM15.625 9.99982H13.75V8.74982H15.625V9.99982ZM13.75 14.3748H15.625V15.6248H13.75V14.3748ZM16.25 14.3748H19.375V15.6248H16.25V14.3748ZM19.375 8.12482H16.25V6.87482H19.375V8.12482ZM15.625 6.87482V8.12482H13.75V6.87482H15.625ZM13.75 16.2498H15.625V17.4998H13.75V16.2498ZM16.25 17.4998V16.2498H19.375V17.4998H16.25Z"/>
</mask>
<path d="M19.6875 6.24982H13.75V5.31232C13.75 5.26534 13.7394 5.21898 13.7189 5.17668C13.6985 5.13438 13.6688 5.09722 13.6321 5.06797C13.5953 5.03872 13.5525 5.01814 13.5066 5.00775C13.4608 4.99735 13.4133 4.99742 13.3675 5.00794L5.2425 6.88294C5.17361 6.89877 5.11213 6.93749 5.06809 6.99277C5.02404 7.04805 5.00004 7.11663 5 7.18732V17.8123C5.00003 17.8869 5.02676 17.9591 5.07537 18.0157C5.12397 18.0724 5.19124 18.1097 5.265 18.1211L13.39 19.3711C13.4345 19.378 13.4801 19.3752 13.5234 19.3629C13.5668 19.3506 13.6069 19.329 13.6412 19.2997C13.6754 19.2703 13.7028 19.2339 13.7216 19.1929C13.7404 19.152 13.7501 19.1074 13.75 19.0623V18.1248H19.6875C19.7704 18.1248 19.8499 18.0919 19.9085 18.0333C19.9671 17.9747 20 17.8952 20 17.8123V6.56232C20 6.47944 19.9671 6.39995 19.9085 6.34135C19.8499 6.28274 19.7704 6.24982 19.6875 6.24982ZM13.75 10.6248H15.625V11.8748H13.75V10.6248ZM7.5475 14.5217L8.90312 12.3529C8.93438 12.3034 8.95096 12.2459 8.95096 12.1873C8.95096 12.1287 8.93438 12.0713 8.90312 12.0217L7.54813 9.85294C7.52433 9.81818 7.50781 9.77898 7.49956 9.73767C7.4913 9.69637 7.49148 9.65382 7.50008 9.61259C7.50869 9.57136 7.52554 9.53229 7.54962 9.49774C7.5737 9.46318 7.60452 9.43385 7.64023 9.41151C7.67594 9.38917 7.71579 9.37427 7.7574 9.36772C7.79901 9.36117 7.84151 9.3631 7.88235 9.37339C7.92319 9.38369 7.96154 9.40213 7.99507 9.42761C8.02861 9.4531 8.05664 9.4851 8.0775 9.52169L9.11 11.1736C9.22438 11.3561 9.52562 11.3561 9.64 11.1736L10.6725 9.52169C10.6941 9.48678 10.7225 9.45648 10.7559 9.43254C10.7892 9.40861 10.827 9.3915 10.867 9.38221C10.907 9.37292 10.9485 9.37162 10.989 9.3784C11.0295 9.38517 11.0683 9.39989 11.1031 9.42169C11.138 9.44339 11.1682 9.47175 11.1921 9.50513C11.216 9.53852 11.2331 9.57629 11.2424 9.61628C11.2516 9.65627 11.253 9.6977 11.2462 9.7382C11.2395 9.7787 11.2248 9.81748 11.2031 9.85232L9.8475 12.0211C9.81625 12.0707 9.79966 12.1281 9.79966 12.1867C9.79966 12.2453 9.81625 12.3027 9.8475 12.3523L11.2025 14.5211C11.2243 14.5559 11.2389 14.5946 11.2457 14.6351C11.2525 14.6756 11.2512 14.717 11.242 14.757C11.2328 14.7969 11.2158 14.8347 11.1919 14.8681C11.1681 14.9015 11.1379 14.9299 11.1031 14.9517C11.0322 14.9935 10.948 15.0064 10.8678 14.9878C10.7877 14.9692 10.7177 14.9204 10.6725 14.8517L9.64 13.1998C9.61164 13.1552 9.57246 13.1185 9.5261 13.093C9.47974 13.0676 9.4277 13.0543 9.37483 13.0543C9.32195 13.0544 9.26995 13.0678 9.22365 13.0934C9.17735 13.1189 9.13826 13.1557 9.11 13.2004L8.0775 14.8523C8.03217 14.9209 7.96224 14.9696 7.88212 14.9882C7.80201 15.0068 7.71781 14.9939 7.64688 14.9523C7.61207 14.9306 7.5819 14.9022 7.55807 14.8688C7.53424 14.8354 7.51723 14.7976 7.508 14.7576C7.49877 14.7176 7.49751 14.6762 7.50429 14.6357C7.51107 14.5952 7.52575 14.5565 7.5475 14.5217ZM13.75 12.4998H15.625V13.7498H13.75V12.4998ZM16.25 12.4998H19.375V13.7498H16.25V12.4998ZM16.25 11.8748V10.6248H19.375V11.8748H16.25ZM16.25 9.99982V8.74982H19.375V9.99982H16.25ZM15.625 9.99982H13.75V8.74982H15.625V9.99982ZM13.75 14.3748H15.625V15.6248H13.75V14.3748ZM16.25 14.3748H19.375V15.6248H16.25V14.3748ZM19.375 8.12482H16.25V6.87482H19.375V8.12482ZM15.625 6.87482V8.12482H13.75V6.87482H15.625ZM13.75 16.2498H15.625V17.4998H13.75V16.2498ZM16.25 17.4998V16.2498H19.375V17.4998H16.25Z" fill="black" stroke="black" stroke-width="2" mask="url(#path-1-inside-1_751_4544)"/>
</g>
</mask>
<g mask="url(#mask0_751_4544)">
<rect id="Rectangle 410" width="24" height="24" fill="white"/>
</g>
</g>
</svg>
