<svg width="25" height="24" viewBox="0 0 25 24" fill="none" xmlns="http://www.w3.org/2000/svg">
<g id="Icon/Fill/printer">
<path id="Mask" fill-rule="evenodd" clip-rule="evenodd" d="M9.625 17.6517V14.6517H16.375L16.3765 17.6517H9.625ZM10.0105 7.15167H16V8.65167H10.0052L10.0105 7.15167ZM18.5223 8.65167H17.5V7.15167C17.5 6.32442 16.8835 5.65167 16.1252 5.65167H9.87475C9.1165 5.65167 8.5 6.32442 8.5 7.15167V8.65167H7.47775C6.38725 8.65167 5.5 9.54867 5.5 10.6519V15.6514C5.5 16.7547 6.38725 17.6517 7.47775 17.6517H8.125C8.125 18.4789 8.79775 19.1517 9.625 19.1517H16.375C17.2023 19.1517 17.875 18.4789 17.875 17.6517H18.5223C19.6128 17.6517 20.5 16.7547 20.5 15.6514V10.6519C20.5 9.54867 19.6128 8.65167 18.5223 8.65167Z" fill="white"/>
</g>
</svg>
